solid solidname
 facet normal 0 0 1
  outer loop
    vertex -3.32721 28.7272 3.81
    vertex -47.4727 72.8728 3.81
    vertex -47.4727 28.7272 3.81
  endloop
 endfacet
 facet normal 0 -0 1
  outer loop
    vertex -47.4727 72.8728 3.81
    vertex -3.32721 28.7272 3.81
    vertex -3.32721 72.8728 3.81
  endloop
 endfacet
 facet normal 1 0 0
  outer loop
    vertex -47.4727 72.8728 3.81
    vertex -47.4727 28.7272 50.8
    vertex -47.4727 28.7272 3.81
  endloop
 endfacet
 facet normal 1 0 -0
  outer loop
    vertex -47.4727 28.7272 50.8
    vertex -47.4727 72.8728 3.81
    vertex -47.4727 72.8728 50.8
  endloop
 endfacet
 facet normal 0 1 0
  outer loop
    vertex -47.4727 28.7272 50.8
    vertex -3.32721 28.7272 3.81
    vertex -47.4727 28.7272 3.81
  endloop
 endfacet
 facet normal -0 1 0
  outer loop
    vertex -3.32721 28.7272 3.81
    vertex -47.4727 28.7272 50.8
    vertex -3.32721 28.7272 50.8
  endloop
 endfacet
 facet normal -1 0 0
  outer loop
    vertex -3.32721 72.8728 50.8
    vertex -3.32721 28.7272 3.81
    vertex -3.32721 28.7272 50.8
  endloop
 endfacet
 facet normal -1 0 -0
  outer loop
    vertex -3.32721 28.7272 3.81
    vertex -3.32721 72.8728 50.8
    vertex -3.32721 72.8728 3.81
  endloop
 endfacet
 facet normal 0 -1 0
  outer loop
    vertex -3.32721 72.8728 50.8
    vertex -47.4727 72.8728 3.81
    vertex -3.32721 72.8728 3.81
  endloop
 endfacet
 facet normal -0 -1 0
  outer loop
    vertex -47.4727 72.8728 3.81
    vertex -3.32721 72.8728 50.8
    vertex -47.4727 72.8728 50.8
  endloop
 endfacet
 facet normal 0 1 0
  outer loop
    vertex -50.8 76.2 50.8
    vertex 50.8 76.2 0
    vertex -50.8 76.2 0
  endloop
 endfacet
 facet normal -0 1 0
  outer loop
    vertex 50.8 76.2 0
    vertex -50.8 76.2 50.8
    vertex 50.8 76.2 50.8
  endloop
 endfacet
 facet normal 0 1 0
  outer loop
    vertex 3.32724 28.7272 50.8
    vertex 47.4728 28.7272 3.81
    vertex 3.32724 28.7272 3.81
  endloop
 endfacet
 facet normal -0 1 0
  outer loop
    vertex 47.4728 28.7272 3.81
    vertex 3.32724 28.7272 50.8
    vertex 47.4728 28.7272 50.8
  endloop
 endfacet
 facet normal -1 0 0
  outer loop
    vertex 47.4728 72.8728 50.8
    vertex 47.4728 28.7272 3.81
    vertex 47.4728 28.7272 50.8
  endloop
 endfacet
 facet normal -1 0 -0
  outer loop
    vertex 47.4728 28.7272 3.81
    vertex 47.4728 72.8728 50.8
    vertex 47.4728 72.8728 3.81
  endloop
 endfacet
 facet normal 1 0 0
  outer loop
    vertex 3.32724 72.8728 3.81
    vertex 3.32724 28.7272 50.8
    vertex 3.32724 28.7272 3.81
  endloop
 endfacet
 facet normal 1 0 -0
  outer loop
    vertex 3.32724 28.7272 50.8
    vertex 3.32724 72.8728 3.81
    vertex 3.32724 72.8728 50.8
  endloop
 endfacet
 facet normal 0 -1 0
  outer loop
    vertex 47.4728 72.8728 50.8
    vertex 3.32724 72.8728 3.81
    vertex 47.4728 72.8728 3.81
  endloop
 endfacet
 facet normal -0 -1 0
  outer loop
    vertex 3.32724 72.8728 3.81
    vertex 47.4728 72.8728 50.8
    vertex 3.32724 72.8728 50.8
  endloop
 endfacet
 facet normal 0 0 1
  outer loop
    vertex 47.4728 28.7272 3.81
    vertex 3.32724 72.8728 3.81
    vertex 3.32724 28.7272 3.81
  endloop
 endfacet
 facet normal 0 -0 1
  outer loop
    vertex 3.32724 72.8728 3.81
    vertex 47.4728 28.7272 3.81
    vertex 47.4728 72.8728 3.81
  endloop
 endfacet
 facet normal 1 0 0
  outer loop
    vertex 50.8 76.2 0
    vertex 50.8 -76.2 50.8
    vertex 50.8 -76.2 0
  endloop
 endfacet
 facet normal 1 0 -0
  outer loop
    vertex 50.8 -76.2 50.8
    vertex 50.8 76.2 0
    vertex 50.8 76.2 50.8
  endloop
 endfacet
 facet normal 0 0 -1
  outer loop
    vertex 50.8 76.2 0
    vertex -50.8 -76.2 0
    vertex -50.8 76.2 0
  endloop
 endfacet
 facet normal 0 -0 -1
  outer loop
    vertex -50.8 -76.2 0
    vertex 50.8 76.2 0
    vertex 50.8 -76.2 0
  endloop
 endfacet
 facet normal -1 0 0
  outer loop
    vertex -50.8 76.2 50.8
    vertex -50.8 -76.2 0
    vertex -50.8 -76.2 50.8
  endloop
 endfacet
 facet normal -1 0 -0
  outer loop
    vertex -50.8 -76.2 0
    vertex -50.8 76.2 50.8
    vertex -50.8 76.2 0
  endloop
 endfacet
 facet normal 0 0 1
  outer loop
    vertex -2.01715 23.3828 50.8
    vertex -47.4727 28.7272 50.8
    vertex -48.7828 23.3828 50.8
  endloop
 endfacet
 facet normal 0 0 1
  outer loop
    vertex -47.4727 28.7272 50.8
    vertex -2.01715 23.3828 50.8
    vertex -3.32721 28.7272 50.8
  endloop
 endfacet
 facet normal 0 0 1
  outer loop
    vertex -3.32721 28.7272 50.8
    vertex -2.01715 23.3828 50.8
    vertex -3.32721 72.8728 50.8
  endloop
 endfacet
 facet normal 0 0 1
  outer loop
    vertex 48.9273 23.5273 50.8
    vertex 3.32724 28.7272 50.8
    vertex 1.87271 23.5273 50.8
  endloop
 endfacet
 facet normal 0 0 1
  outer loop
    vertex 3.32724 28.7272 50.8
    vertex 48.9273 23.5273 50.8
    vertex 47.4728 28.7272 50.8
  endloop
 endfacet
 facet normal 0 0 1
  outer loop
    vertex 47.4728 28.7272 50.8
    vertex 48.9273 23.5273 50.8
    vertex 47.4728 72.8728 50.8
  endloop
 endfacet
 facet normal 0 0 1
  outer loop
    vertex 49.4243 -26.7757 50.8
    vertex 1.87271 -23.5273 50.8
    vertex 1.37573 -26.7757 50.8
  endloop
 endfacet
 facet normal 0 0 1
  outer loop
    vertex 1.87271 -23.5273 50.8
    vertex 49.4243 -26.7757 50.8
    vertex 48.9273 -23.5273 50.8
  endloop
 endfacet
 facet normal 0 0 1
  outer loop
    vertex 48.9273 -23.5273 50.8
    vertex 49.4243 -26.7757 50.8
    vertex 48.9273 23.5273 50.8
  endloop
 endfacet
 facet normal 0 0 1
  outer loop
    vertex -50.8 -76.2 50.8
    vertex -48.2841 -73.6841 50.8
    vertex -50.8 76.2 50.8
  endloop
 endfacet
 facet normal 0 0 1
  outer loop
    vertex -48.2841 -73.6841 50.8
    vertex -50.8 -76.2 50.8
    vertex 50.8 -76.2 50.8
  endloop
 endfacet
 facet normal 0 0 1
  outer loop
    vertex -50.8 76.2 50.8
    vertex -48.2841 -73.6841 50.8
    vertex -48.7828 -23.3828 50.8
  endloop
 endfacet
 facet normal 0 0 1
  outer loop
    vertex -48.2841 -73.6841 50.8
    vertex 50.8 -76.2 50.8
    vertex 1.37573 -74.8243 50.8
  endloop
 endfacet
 facet normal 0 0 1
  outer loop
    vertex -48.2841 -73.6841 50.8
    vertex 1.37573 -74.8243 50.8
    vertex -2.5159 -73.6841 50.8
  endloop
 endfacet
 facet normal 0 0 1
  outer loop
    vertex -2.5159 -73.6841 50.8
    vertex 1.37573 -74.8243 50.8
    vertex -2.5159 -27.9159 50.8
  endloop
 endfacet
 facet normal 0 0 1
  outer loop
    vertex -2.5159 -27.9159 50.8
    vertex 1.37573 -74.8243 50.8
    vertex -2.01715 -23.3828 50.8
  endloop
 endfacet
 facet normal 0 0 1
  outer loop
    vertex -2.01715 -23.3828 50.8
    vertex 1.37573 -74.8243 50.8
    vertex -2.01715 23.3828 50.8
  endloop
 endfacet
 facet normal 0 0 1
  outer loop
    vertex 1.37573 -74.8243 50.8
    vertex 50.8 -76.2 50.8
    vertex 49.4243 -74.8243 50.8
  endloop
 endfacet
 facet normal 0 0 1
  outer loop
    vertex 49.4243 -74.8243 50.8
    vertex 50.8 -76.2 50.8
    vertex 49.4243 -26.7757 50.8
  endloop
 endfacet
 facet normal 0 -0 1
  outer loop
    vertex -50.8 76.2 50.8
    vertex -47.4727 72.8728 50.8
    vertex 50.8 76.2 50.8
  endloop
 endfacet
 facet normal 0 0 1
  outer loop
    vertex -47.4727 72.8728 50.8
    vertex -50.8 76.2 50.8
    vertex -48.7828 23.3828 50.8
  endloop
 endfacet
 facet normal 0 0 1
  outer loop
    vertex -48.7828 23.3828 50.8
    vertex -50.8 76.2 50.8
    vertex -48.7828 -23.3828 50.8
  endloop
 endfacet
 facet normal 0 0 1
  outer loop
    vertex -47.4727 72.8728 50.8
    vertex -48.7828 23.3828 50.8
    vertex -47.4727 28.7272 50.8
  endloop
 endfacet
 facet normal 0 0 1
  outer loop
    vertex 50.8 76.2 50.8
    vertex -47.4727 72.8728 50.8
    vertex -3.32721 72.8728 50.8
  endloop
 endfacet
 facet normal 0 0 1
  outer loop
    vertex 50.8 76.2 50.8
    vertex -3.32721 72.8728 50.8
    vertex 3.32724 72.8728 50.8
  endloop
 endfacet
 facet normal -0 0 1
  outer loop
    vertex 3.32724 72.8728 50.8
    vertex -3.32721 72.8728 50.8
    vertex -2.01715 23.3828 50.8
  endloop
 endfacet
 facet normal 0 0 1
  outer loop
    vertex 3.32724 72.8728 50.8
    vertex -2.01715 23.3828 50.8
    vertex 1.87271 23.5273 50.8
  endloop
 endfacet
 facet normal -0 0 1
  outer loop
    vertex 1.87271 23.5273 50.8
    vertex -2.01715 23.3828 50.8
    vertex 1.37573 -26.7757 50.8
  endloop
 endfacet
 facet normal 0 0 1
  outer loop
    vertex 1.37573 -26.7757 50.8
    vertex -2.01715 23.3828 50.8
    vertex 1.37573 -74.8243 50.8
  endloop
 endfacet
 facet normal 0 0 1
  outer loop
    vertex 1.87271 23.5273 50.8
    vertex 1.37573 -26.7757 50.8
    vertex 1.87271 -23.5273 50.8
  endloop
 endfacet
 facet normal 0 0 1
  outer loop
    vertex 3.32724 72.8728 50.8
    vertex 1.87271 23.5273 50.8
    vertex 3.32724 28.7272 50.8
  endloop
 endfacet
 facet normal 0 0 1
  outer loop
    vertex 50.8 76.2 50.8
    vertex 3.32724 72.8728 50.8
    vertex 47.4728 72.8728 50.8
  endloop
 endfacet
 facet normal -0 0 1
  outer loop
    vertex 50.8 76.2 50.8
    vertex 47.4728 72.8728 50.8
    vertex 48.9273 23.5273 50.8
  endloop
 endfacet
 facet normal -0 0 1
  outer loop
    vertex 50.8 76.2 50.8
    vertex 48.9273 23.5273 50.8
    vertex 49.4243 -26.7757 50.8
  endloop
 endfacet
 facet normal -0 0 1
  outer loop
    vertex 50.8 76.2 50.8
    vertex 49.4243 -26.7757 50.8
    vertex 50.8 -76.2 50.8
  endloop
 endfacet
 facet normal 0 -0 1
  outer loop
    vertex -48.7828 -23.3828 50.8
    vertex -48.2841 -27.9159 50.8
    vertex -2.01715 -23.3828 50.8
  endloop
 endfacet
 facet normal 0 0 1
  outer loop
    vertex -48.2841 -27.9159 50.8
    vertex -48.7828 -23.3828 50.8
    vertex -48.2841 -73.6841 50.8
  endloop
 endfacet
 facet normal 0 0 1
  outer loop
    vertex -2.01715 -23.3828 50.8
    vertex -48.2841 -27.9159 50.8
    vertex -2.5159 -27.9159 50.8
  endloop
 endfacet
 facet normal 0 -1 0
  outer loop
    vertex 50.8 -76.2 50.8
    vertex -50.8 -76.2 0
    vertex 50.8 -76.2 0
  endloop
 endfacet
 facet normal -0 -1 0
  outer loop
    vertex -50.8 -76.2 0
    vertex 50.8 -76.2 50.8
    vertex -50.8 -76.2 50.8
  endloop
 endfacet
 facet normal 0 0 1
  outer loop
    vertex -2.01715 -23.3828 3.81
    vertex -48.7828 23.3828 3.81
    vertex -48.7828 -23.3828 3.81
  endloop
 endfacet
 facet normal 0 -0 1
  outer loop
    vertex -48.7828 23.3828 3.81
    vertex -2.01715 -23.3828 3.81
    vertex -2.01715 23.3828 3.81
  endloop
 endfacet
 facet normal 0 -1 0
  outer loop
    vertex -2.01715 23.3828 50.8
    vertex -48.7828 23.3828 3.81
    vertex -2.01715 23.3828 3.81
  endloop
 endfacet
 facet normal -0 -1 0
  outer loop
    vertex -48.7828 23.3828 3.81
    vertex -2.01715 23.3828 50.8
    vertex -48.7828 23.3828 50.8
  endloop
 endfacet
 facet normal 1 0 0
  outer loop
    vertex -48.7828 23.3828 3.81
    vertex -48.7828 -23.3828 50.8
    vertex -48.7828 -23.3828 3.81
  endloop
 endfacet
 facet normal 1 0 -0
  outer loop
    vertex -48.7828 -23.3828 50.8
    vertex -48.7828 23.3828 3.81
    vertex -48.7828 23.3828 50.8
  endloop
 endfacet
 facet normal 0 1 0
  outer loop
    vertex -48.7828 -23.3828 50.8
    vertex -2.01715 -23.3828 3.81
    vertex -48.7828 -23.3828 3.81
  endloop
 endfacet
 facet normal -0 1 0
  outer loop
    vertex -2.01715 -23.3828 3.81
    vertex -48.7828 -23.3828 50.8
    vertex -2.01715 -23.3828 50.8
  endloop
 endfacet
 facet normal -1 0 0
  outer loop
    vertex -2.01715 23.3828 50.8
    vertex -2.01715 -23.3828 3.81
    vertex -2.01715 -23.3828 50.8
  endloop
 endfacet
 facet normal -1 0 -0
  outer loop
    vertex -2.01715 -23.3828 3.81
    vertex -2.01715 23.3828 50.8
    vertex -2.01715 23.3828 3.81
  endloop
 endfacet
 facet normal 0 0 1
  outer loop
    vertex 48.9273 -23.5273 3.81
    vertex 1.87271 23.5273 3.81
    vertex 1.87271 -23.5273 3.81
  endloop
 endfacet
 facet normal 0 -0 1
  outer loop
    vertex 1.87271 23.5273 3.81
    vertex 48.9273 -23.5273 3.81
    vertex 48.9273 23.5273 3.81
  endloop
 endfacet
 facet normal -1 0 0
  outer loop
    vertex 48.9273 23.5273 50.8
    vertex 48.9273 -23.5273 3.81
    vertex 48.9273 -23.5273 50.8
  endloop
 endfacet
 facet normal -1 0 -0
  outer loop
    vertex 48.9273 -23.5273 3.81
    vertex 48.9273 23.5273 50.8
    vertex 48.9273 23.5273 3.81
  endloop
 endfacet
 facet normal 0 -1 0
  outer loop
    vertex 48.9273 23.5273 50.8
    vertex 1.87271 23.5273 3.81
    vertex 48.9273 23.5273 3.81
  endloop
 endfacet
 facet normal -0 -1 0
  outer loop
    vertex 1.87271 23.5273 3.81
    vertex 48.9273 23.5273 50.8
    vertex 1.87271 23.5273 50.8
  endloop
 endfacet
 facet normal 1 0 0
  outer loop
    vertex 1.87271 23.5273 3.81
    vertex 1.87271 -23.5273 50.8
    vertex 1.87271 -23.5273 3.81
  endloop
 endfacet
 facet normal 1 0 -0
  outer loop
    vertex 1.87271 -23.5273 50.8
    vertex 1.87271 23.5273 3.81
    vertex 1.87271 23.5273 50.8
  endloop
 endfacet
 facet normal 0 1 0
  outer loop
    vertex 1.87271 -23.5273 50.8
    vertex 48.9273 -23.5273 3.81
    vertex 1.87271 -23.5273 3.81
  endloop
 endfacet
 facet normal -0 1 0
  outer loop
    vertex 48.9273 -23.5273 3.81
    vertex 1.87271 -23.5273 50.8
    vertex 48.9273 -23.5273 50.8
  endloop
 endfacet
 facet normal 0 0 1
  outer loop
    vertex -2.5159 -73.6841 3.81
    vertex -48.2841 -27.9159 3.81
    vertex -48.2841 -73.6841 3.81
  endloop
 endfacet
 facet normal 0 -0 1
  outer loop
    vertex -48.2841 -27.9159 3.81
    vertex -2.5159 -73.6841 3.81
    vertex -2.5159 -27.9159 3.81
  endloop
 endfacet
 facet normal 1 0 0
  outer loop
    vertex -48.2841 -27.9159 3.81
    vertex -48.2841 -73.6841 50.8
    vertex -48.2841 -73.6841 3.81
  endloop
 endfacet
 facet normal 1 0 -0
  outer loop
    vertex -48.2841 -73.6841 50.8
    vertex -48.2841 -27.9159 3.81
    vertex -48.2841 -27.9159 50.8
  endloop
 endfacet
 facet normal 0 1 0
  outer loop
    vertex -48.2841 -73.6841 50.8
    vertex -2.5159 -73.6841 3.81
    vertex -48.2841 -73.6841 3.81
  endloop
 endfacet
 facet normal -0 1 0
  outer loop
    vertex -2.5159 -73.6841 3.81
    vertex -48.2841 -73.6841 50.8
    vertex -2.5159 -73.6841 50.8
  endloop
 endfacet
 facet normal -1 0 0
  outer loop
    vertex -2.5159 -27.9159 50.8
    vertex -2.5159 -73.6841 3.81
    vertex -2.5159 -73.6841 50.8
  endloop
 endfacet
 facet normal -1 0 -0
  outer loop
    vertex -2.5159 -73.6841 3.81
    vertex -2.5159 -27.9159 50.8
    vertex -2.5159 -27.9159 3.81
  endloop
 endfacet
 facet normal 0 -1 0
  outer loop
    vertex -2.5159 -27.9159 50.8
    vertex -48.2841 -27.9159 3.81
    vertex -2.5159 -27.9159 3.81
  endloop
 endfacet
 facet normal -0 -1 0
  outer loop
    vertex -48.2841 -27.9159 3.81
    vertex -2.5159 -27.9159 50.8
    vertex -48.2841 -27.9159 50.8
  endloop
 endfacet
 facet normal 0 0 1
  outer loop
    vertex 49.4243 -74.8243 3.81
    vertex 1.37573 -26.7757 3.81
    vertex 1.37573 -74.8243 3.81
  endloop
 endfacet
 facet normal 0 -0 1
  outer loop
    vertex 1.37573 -26.7757 3.81
    vertex 49.4243 -74.8243 3.81
    vertex 49.4243 -26.7757 3.81
  endloop
 endfacet
 facet normal -1 0 0
  outer loop
    vertex 49.4243 -26.7757 50.8
    vertex 49.4243 -74.8243 3.81
    vertex 49.4243 -74.8243 50.8
  endloop
 endfacet
 facet normal -1 0 -0
  outer loop
    vertex 49.4243 -74.8243 3.81
    vertex 49.4243 -26.7757 50.8
    vertex 49.4243 -26.7757 3.81
  endloop
 endfacet
 facet normal 0 -1 0
  outer loop
    vertex 49.4243 -26.7757 50.8
    vertex 1.37573 -26.7757 3.81
    vertex 49.4243 -26.7757 3.81
  endloop
 endfacet
 facet normal -0 -1 0
  outer loop
    vertex 1.37573 -26.7757 3.81
    vertex 49.4243 -26.7757 50.8
    vertex 1.37573 -26.7757 50.8
  endloop
 endfacet
 facet normal 1 0 0
  outer loop
    vertex 1.37573 -26.7757 3.81
    vertex 1.37573 -74.8243 50.8
    vertex 1.37573 -74.8243 3.81
  endloop
 endfacet
 facet normal 1 0 -0
  outer loop
    vertex 1.37573 -74.8243 50.8
    vertex 1.37573 -26.7757 3.81
    vertex 1.37573 -26.7757 50.8
  endloop
 endfacet
 facet normal 0 1 0
  outer loop
    vertex 1.37573 -74.8243 50.8
    vertex 49.4243 -74.8243 3.81
    vertex 1.37573 -74.8243 3.81
  endloop
 endfacet
 facet normal -0 1 0
  outer loop
    vertex 49.4243 -74.8243 3.81
    vertex 1.37573 -74.8243 50.8
    vertex 49.4243 -74.8243 50.8
  endloop
 endfacet
endsolid solidname
